<?xml version="1.0" encoding="UTF-8"?>
<svg id="Layer_2" data-name="Layer 2" xmlns="http://www.w3.org/2000/svg" viewBox="0 0 585.63 714.08">
  <defs>
    <style>
      .cls-1 {
        fill: #84a587;
      }
    </style>
  </defs>
  <g id="Layer_1-2" data-name="Layer 1">
    <g>
      <path class="cls-1" d="M585.63,433.52c-2.45-1.97-1.5-4.68-1.86-7.12-7.73-52.75-17.65-89.48-66.37-116.85-62.35-35.04-142.66-49.94-210.53-72.81-8.21-2.77-27.07-8.48-32.55-14.47-2.33-2.55-3.25-6.27-1.22-9.27,38.55,6.34,77.49,10.44,115.89,17.68,33.94,6.4,69.44,14.73,99.96,31.18,2.09,1.13,3.85,3.31,6.38,3.2.69-.61-1.96-2.93-2.46-3.41-23.55-22.53-75.47-47.02-107.48-52.14-38.8-6.21-83.59-5.24-121,6.66-33.92,10.79-77.11,27.7-94.65,61.27-32.37,61.95,54.91,111.75,99.25,134.73,75.5,39.13,158.75,61.69,231.71,105.47,23.81,14.29,51.41,33.46,47.12,65.37-.74,5.5-2.49,10.89-4.87,15.87,1.12.23,1.54-.54,2.13-1.27,5.95-7.37,15.56-26.95,19.63-36.08,25.15-56.51,12.45-93.16-39.12-125.16-64.23-39.85-139.59-62.3-208.96-91.1-30.62-12.71-94.08-41.58-105.62-74.45-8.73-24.88,25.65-44.62,45-50.95.91.86-4.21,4.02-4.73,4.55-20.28,20.61,14.84,42.03,30.28,50.06,43.17,22.43,96.27,36.66,142.35,53.14,57.17,20.45,140.87,48.65,160.18,112.74.31,1.02-.13,2.2,1.52,1.85v-5.57h-1.23c-.14-1.16,0-2.1,1.23-2.48v-.62Z"/>
      <path class="cls-1" d="M95.85,0c-27.13,50.8-51.77,112.05-34.94,170.31,10.37,35.87,36.62,64.79,67.15,85.1,2.5,1.66,5.47,3.7,8.28,4.71l-13.61-24.15c-25.14-47.91-33.72-92.85-27.56-147.15.14-1.2,1.91-.48.68-3.36,1.13.23,1.15,1.22,1.25,2.14.69,6.17.15,13.58.6,19.83,4.02,55.95,22.22,108.01,57.81,151.42,23.13-43.64,37.23-94.95,19.32-143.2C158.24,70.92,119.59,40.68,96.47,0h-.62Z"/>
      <path class="cls-1" d="M341.36,714.08c-.34-1.87.95-1.19,2.14-1.24,16.12-.61,32.27-2.87,47.96-6.5,10.87-2.51,37.97-8.58,11.74-17.34-27.29-9.12-57.45-15.15-85.34-23.54-74.53-22.41-177.52-60.86-220.41-129.8-3.39-5.44-5.92-11.53-9.63-16.67,21.67,93.64,89.14,167.96,184.27,188.59,10.29,2.23,26.39,5.24,35.55,5.25,1.66,0,3.34-.05,4.99,0,1.19.04,2.48-.64,2.14,1.24h26.59Z"/>
      <path class="cls-1" d="M0,254.54c3.82,3.76,6.25,8.8,9.39,13.2,28.24,39.64,63.13,64.34,113.22,44.25,2.75-1.1,9.12-3.84,11.42-5.27.64-.4,1.08.03.79-1.39-31.4,1.6-60.7-7.38-86.9-24.14-1.89-1.21-4.21-2.63-5.93-3.99-.65-.51-1.56.02-1.16-1.6,31.21,14.16,64.29,22.93,98.94,21.05-15.73-24.29-36.44-45.64-66.56-49.46-9.69-1.23-19.25-.52-28.9.63-14.75,1.75-29.32,5.78-44.3,5.49v1.24Z"/>
      <path class="cls-1" d="M122.44,320.81l-6.9,11.35c-22,42.02-42.12,89.09-16.7,134.61,42.67,76.4,156.27,120.89,234.78,149.47,31.51,11.47,70.06,21.23,99.5,35.98,12.63,6.33,27.58,15.3,14.86,30.21-.95,1.11-3.14,2.36-3.95,3.77,17.03-7.97,36.45-18.02,49.17-32.19,26.95-30.02-5.22-53.91-31.44-66.38-36.77-17.5-77.64-31.66-115.43-47.28-37.9-15.67-75.52-32.43-111.12-52.84-48.59-27.85-130.37-82.68-118.03-148.15,1.2-6.39,3.9-12.24,5.27-18.55Z"/>
      <path class="cls-1" d="M495.65,266.31c.4-.21.4-.41,0-.62v.62Z"/>
    </g>
  </g>
</svg>