<?xml version="1.0" encoding="UTF-8"?>
<!DOCTYPE svg PUBLIC "-//W3C//DTD SVG 1.1//EN" "http://www.w3.org/Graphics/SVG/1.1/DTD/svg11.dtd">
<!-- Creator: CorelDRAW -->
<svg xmlns="http://www.w3.org/2000/svg" xml:space="preserve" width="4.7412mm" height="4.7412mm" version="1.1" style="shape-rendering:geometricPrecision; text-rendering:geometricPrecision; image-rendering:optimizeQuality; fill-rule:evenodd; clip-rule:evenodd"
viewBox="0 0 474.12 474.12"
 xmlns:xlink="http://www.w3.org/1999/xlink"
 xmlns:xodm="http://www.corel.com/coreldraw/odm/2003">
 <defs>
  <style type="text/css">
   <![CDATA[
    .fil0 {fill:#B2B3B3}
    .fil5 {fill:url(#id0)}
    .fil4 {fill:url(#id1)}
    .fil1 {fill:url(#id2)}
    .fil3 {fill:url(#id3)}
    .fil2 {fill:url(#id4)}
    .fil7 {fill:url(#id5)}
    .fil6 {fill:url(#id6)}
   ]]>
  </style>
  <linearGradient id="id0" gradientUnits="userSpaceOnUse" x1="72.78" y1="194.51" x2="129.23" y2="223.9">
   <stop offset="0" style="stop-opacity:1; stop-color:#0082C9"/>
   <stop offset="1" style="stop-opacity:1; stop-color:#302861"/>
  </linearGradient>
  <linearGradient id="id1" gradientUnits="userSpaceOnUse" xlink:href="#id0" x1="246.82" y1="166.47" x2="338.93" y2="191.84">
  </linearGradient>
  <linearGradient id="id2" gradientUnits="userSpaceOnUse" xlink:href="#id0" x1="143.67" y1="400.03" x2="276.47" y2="479.9">
  </linearGradient>
  <linearGradient id="id3" gradientUnits="userSpaceOnUse" x1="218.96" y1="251.33" x2="364.26" y2="355.48">
   <stop offset="0" style="stop-opacity:1; stop-color:#78B833"/>
   <stop offset="1" style="stop-opacity:1; stop-color:#00672C"/>
  </linearGradient>
  <linearGradient id="id4" gradientUnits="userSpaceOnUse" x1="173.07" y1="307.99" x2="319.1" y2="406.9">
   <stop offset="0" style="stop-opacity:1; stop-color:#78B833"/>
   <stop offset="1" style="stop-opacity:1; stop-color:#00662B"/>
  </linearGradient>
  <linearGradient id="id5" gradientUnits="userSpaceOnUse" xlink:href="#id0" x1="241.12" y1="226.5" x2="379.01" y2="320.07">
  </linearGradient>
  <linearGradient id="id6" gradientUnits="userSpaceOnUse" xlink:href="#id4" x1="111.65" y1="87.48" x2="156.25" y2="157.38">
  </linearGradient>
 </defs>
 <g id="Layer_x0020_1">
  <metadata id="CorelCorpID_0Corel-Layer"/>
  <g id="_2241948507312">
   <path class="fil0" d="M112.54 316.31c0.5,-2.66 1.2,-5.25 2.06,-7.78 0.38,0.63 0.77,1.25 1.16,1.87l0.28 0.44c0.39,0.62 0.79,1.23 1.19,1.84l0.17 0.25c0.4,0.61 0.82,1.22 1.24,1.83l0.36 0.52c0.37,0.53 0.75,1.06 1.13,1.58l0.44 0.6c0.36,0.49 0.72,0.98 1.09,1.46l0.51 0.66c0.35,0.47 0.71,0.93 1.08,1.39l0.54 0.68c0.35,0.44 0.71,0.87 1.06,1.3l0.78 0.94c0.29,0.35 0.59,0.69 0.88,1.03 0.31,0.37 0.63,0.73 0.94,1.09l0.74 0.83 1.03 1.14 0.35 0.39 0.35 0.38c0.46,0.49 0.92,0.98 1.39,1.47l0.04 0.05 0.37 0.38c0.45,0.48 0.91,0.95 1.38,1.42l0.08 0.08 0.37 0.37c0.49,0.5 0.99,0.99 1.49,1.48l0.37 0.36c-1.95,6.7 -2.45,13.84 -1.04,21.56 -3.73,-4.09 -7.08,-8.38 -9.98,-12.9 -5.26,-8.19 -8.57,-17.49 -11.85,-26.71zm34.97 -51.38c1,-0.92 2.01,-1.83 3.03,-2.74 6.68,-6.01 13.62,-11.94 20.65,-17.85 0.31,0.3 0.63,0.6 0.95,0.89 9.04,8.4 19.6,15.72 30.63,22.21 -9.73,7.16 -19.78,14.32 -30.43,21.7l-0.02 -0.02 -0.02 -0.02 -0.01 0 -0.02 -0.02 -0.03 -0.02 -0.02 -0.02 -0.02 -0.02 -0.03 -0.02 -0.02 -0.02 -0.03 -0.02 -0.02 -0.02 -0.05 -0.03 -0.02 -0.02 -0.03 -0.02 -0.02 -0.02 -0.03 -0.02 -0.02 -0.02 -0.02 -0.02 -0.03 -0.02 -0.02 -0.02 -0.03 -0.02 -0.02 -0.02 -0.03 -0.02 -0.02 -0.01 -0.03 -0.02 -0.02 -0.02 -0.02 -0.02 -0.03 -0.02 -0.02 -0.02 -0.03 -0.02 -0.02 -0.02 -0.02 -0.02 -0.03 -0.02 0 0 -0.02 -0.02 -0.03 -0.02 -0.02 -0.01 -0.03 -0.02 -0.02 -0.02 -0.02 -0.02 -0.03 -0.02 -0.02 -0.02 -0.03 -0.02 -0.02 -0.02 -0.02 -0.02 -0.03 -0.02 -0.02 -0.02 -0.03 -0.02 -0.02 -0.02 -0.03 -0.01 -0.02 -0.02 -0.05 -0.04 -0.02 -0.02 -0.03 -0.02 -0.02 -0.02 -0.03 -0.02 -0.02 -0.02 -0.02 -0.02 -0.03 -0.02 -0.02 -0.02 -0.03 -0.02 -0.02 -0.02 -0.02 -0.01 -0.03 -0.02 -0.74 -0.6 -0.36 -0.29 -0.37 -0.3 -0.03 -0.02 -0.34 -0.28 -0.37 -0.31 -0.04 -0.03 -0.33 -0.28 -0.38 -0.3 -0.05 -0.05 -0.32 -0.27 -0.38 -0.31 -0.06 -0.06 -0.31 -0.25 -0.38 -0.32 -0.08 -0.07 -0.3 -0.25 -0.37 -0.33 -0.1 -0.08 -0.28 -0.24 -0.38 -0.33 -0.11 -0.09 -0.27 -0.24 -0.38 -0.33 -0.12 -0.1 -0.26 -0.23 -0.37 -0.33 -0.14 -0.13 -0.24 -0.21 -0.38 -0.34 -0.15 -0.14 -0.23 -0.2 -0.38 -0.34 -0.17 -0.16 -0.21 -0.19 -0.38 -0.35 -0.18 -0.16 -0.2 -0.19 -0.57 -0.53 -0.18 -0.17 -0.38 -0.36 -0.2 -0.19 -0.18 -0.17 -0.37 -0.36 -0.37 -0.36 -0.38 -0.36 -0.23 -0.23 -0.14 -0.14 -0.37 -0.36 -0.38 -0.37 -0.36 -0.38 -0.26 -0.25 -0.11 -0.12 -0.37 -0.37 -0.27 -0.28 -0.1 -0.1 -0.36 -0.38 -0.37 -0.38 -0.36 -0.38 -0.29 -0.31 -0.07 -0.08 -0.36 -0.38 -0.01 -0.02 -0.35 -0.37 -0.35 -0.39 -0.31 -0.34 -0.05 -0.05 -0.35 -0.4 -0.03 -0.04 -0.32 -0.35 -0.35 -0.4 -0.32 -0.38 -0.02 -0.02 -0.35 -0.4c-0.91,-1.07 -1.79,-2.16 -2.65,-3.26l-0.01 -0.01 -0.32 -0.42 -0.3 -0.39 -0.02 -0.03zm69.01 -59.15c4.38,-3.94 8.66,-7.93 12.79,-11.97 4.92,2.41 9.68,4.39 13.45,5.95 5.84,2.41 11.72,4.7 17.64,6.89 3.82,1.42 7.67,2.8 11.54,4.16 -4.54,4.74 -9.62,9.56 -15.27,14.43 -1.06,-0.43 -2.12,-0.86 -3.18,-1.3 -10.25,-4.22 -24.61,-10.32 -36.97,-18.16zm40.79 -43.96l0.55 -0.78c13.22,1.83 27.42,3.94 41.2,6.66 -0.52,1.97 -1.17,3.97 -1.93,6 -9.82,-2.89 -19.65,-5.73 -29.45,-8.69 -3.46,-1.04 -6.93,-2.1 -10.37,-3.19z"/>
   <path class="fil0" d="M341.46 179.53c0.11,2.49 -0.17,5.15 -0.8,7.97 8.12,2.89 16.15,6.02 23.92,9.52 2.99,1.35 6.16,2.84 9.34,4.49l-0.02 -0.09c-6.85,-5.94 -14.34,-12.8 -21.74,-16.86 -3.29,-1.81 -6.88,-3.48 -10.7,-5.03zm-22.1 47.57c-4.02,5.53 -8.43,11.28 -13.14,17.2 15.87,6.09 31.59,12.44 46.9,19.85 4.07,-6.25 7.74,-12.43 10.84,-18.46l-0.27 -0.14c-14.26,-7.14 -29.19,-13.03 -44.33,-18.45zm-56.06 69.3c-8.47,10.37 -16.81,20.87 -24.56,31.36 15.36,7.12 31.03,13.65 46.72,19.94 8.55,-9.7 17.97,-20.28 27.38,-31.29 -3.19,-1.34 -6.4,-2.65 -9.63,-3.94 -13.29,-5.31 -26.66,-10.56 -39.91,-16.07zm-56.27 83.36c-2.9,6.64 -5.19,13.14 -6.7,19.45 13.44,5.84 27.11,10.74 39.95,14.85 1.83,-6.07 4.44,-12 7.73,-17.82 -13.26,-4.9 -27.19,-10.3 -40.98,-16.48z"/>
   <path class="fil0" d="M397.9 270.55c-2.17,4.81 -4.84,9.72 -7.91,14.71 8.42,6.06 16.13,13.33 21.09,22.35l-2.81 -17.08c-1.83,-7.55 -5.53,-14.17 -10.37,-19.98zm-46.98 64.21c-8.72,9.66 -17.78,19.28 -26.52,28.7 6.24,2.63 12.45,5.35 18.6,8.18 4.21,1.94 8.88,4.37 13.23,7.34 8.26,-7.79 16.34,-15.74 23.73,-23.81 -3.18,-3.77 -7.43,-7.2 -12.35,-10.39 -5.48,-3.55 -11.04,-6.88 -16.69,-10.02zm-65.56 74.48c-3.69,5.21 -6.84,10.23 -9.26,15.01 8.45,2.08 16.93,4.07 25.25,6.65 3.55,-3.83 7.43,-7.76 11.56,-11.77 -1.26,-0.49 -2.51,-0.98 -3.77,-1.46 -7.85,-3.02 -15.81,-5.75 -23.78,-8.43z"/>
   <path class="fil1" d="M112.37 334.51c18.85,42.99 74.69,71.77 150.11,93 14.6,3.99 29.19,7.98 43.78,11.97 12.82,5.89 -4.15,8.51 -18.49,11.42 -79.35,13.3 -153.72,-27.33 -175.4,-116.39z"/>
   <path class="fil2" d="M311.5 411.54c12.96,5.47 33.18,12.66 17.53,25.49 41.5,-19.66 49.68,-39.98 11.22,-59.42 -17.58,-7.34 -35.17,-14.68 -52.75,-22.03 -48.23,-18.25 -90.36,-38.49 -120.82,-62.55 -35.82,-29.08 -44.18,-54.01 -32.14,-79.46 -25.83,43.96 -27.47,69.64 -14.4,91.41 28.12,46.86 92.63,70.88 140.5,88.88 16.95,5.89 33.91,11.79 50.86,17.68z"/>
   <path class="fil3" d="M371.19 339.27c20,13.39 27.04,29.1 16.59,47.93 32.54,-51.31 29,-76.23 -8.44,-101.16 -41.05,-24.17 -84.98,-39.2 -128.35,-56.02 -28.38,-12.37 -54.45,-25.21 -63.37,-44.06 -4.88,-10.33 3.85,-24.91 32.31,-34.05 -44,11.75 -87.19,45.72 -43.32,88.51 29.37,25.98 78.49,46.17 129.04,65.94 21.61,8.81 43.38,19.03 65.54,32.91z"/>
   <path class="fil4" d="M225.09 149.75c22.51,-3.73 45.39,-7.09 79.39,0.3 26.36,9.47 45.55,20.65 58.25,33.37 -31.21,-22.18 -98.04,-27.24 -137.64,-33.67z"/>
   <path class="fil5" d="M79.48 185.36c25.9,12.79 44.82,15.81 64.34,15.08 -29.71,-45.75 -58.96,-25.48 -84.35,-26 20.85,34.43 46.59,50.51 81.63,31.78 -18.55,0.07 -35.79,-2 -61.62,-20.86z"/>
   <path class="fil6" d="M118.67 62.32c-2.1,49.74 11.04,84.24 35.09,115.35 45.01,-88.76 -13.75,-116.36 -36.16,-156.92 -35.27,64.41 -37.09,119.76 24.54,157.92 -18.79,-30.88 -32.64,-61.4 -23.47,-116.35z"/>
   <path class="fil7" d="M209.51 160.73c1.96,-4.84 6.96,-7.62 15.58,-10.98 -2.44,3.47 0.45,6.44 5.62,9.19 35.03,14.91 139.06,34.7 163.81,65.84 10.03,12.62 17.59,31.68 20.14,64.2 -5.13,-21.18 -22.96,-36.83 -48.03,-49.31 -37.54,-18.93 -80.86,-29.22 -121.35,-45.98 -21.2,-8.77 -41.22,-19.53 -35.77,-32.96z"/>
  </g>
 </g>
</svg>
